<svg xmlns="http://www.w3.org/2000/svg" viewBox="0 0 21.82 30.22"><defs><style>.cls-1{fill:#028002;}.cls-2{fill:#009400;}.cls-3{fill:#fff;}</style></defs><g id="Layer_2" data-name="Layer 2"><g id="Layer_1-2" data-name="Layer 1"><path class="cls-1" d="M10.9,30.22c-.8-.9-1.65-1.75-2.37-2.69A82,82,0,0,1,2.44,19,19.24,19.24,0,0,1,.35,14.15,13.4,13.4,0,0,1,0,10.26,10.29,10.29,0,0,1,4.9,1.71,10.08,10.08,0,0,1,9.38.08a10.83,10.83,0,0,1,9.36,3.3,11.34,11.34,0,0,1,2.14,2.91,9.37,9.37,0,0,1,.91,4.83,16.32,16.32,0,0,1-1.62,5.76,39.93,39.93,0,0,1-3.83,6.41A80.23,80.23,0,0,1,11,30.13ZM5.51,11.11A5.44,5.44,0,0,0,6,13.41,5.28,5.28,0,0,0,13.31,16a5.49,5.49,0,0,0,2.28-7.22A5.28,5.28,0,0,0,9.36,6,5.39,5.39,0,0,0,5.51,11.11Z"/><circle class="cls-2" cx="10.87" cy="11.16" r="6.17"/><g id="Layer_2-2" data-name="Layer 2"><g id="Layer_1-2-2" data-name="Layer 1-2"><path class="cls-3" d="M15,10.05c.4.1.78.21,1.15.32a.22.22,0,0,1,.08.13,5.32,5.32,0,0,1-4.47,4.84,5.72,5.72,0,0,1-2.18-.09.44.44,0,0,1-.16-.06c.24-.26.47-.49.67-.75a.77.77,0,0,1,.72-.31A4.06,4.06,0,0,0,15,10.24Z"/><path class="cls-3" d="M12.72,13.27l-1.1.35s-.13-.06-.16-.11a4.1,4.1,0,0,0-1.4-1.58,4,4,0,0,0-2.35-.68c-.2,0-.3-.06-.33-.24s-.09-.57-.14-.85c0-.12.07-.14.16-.14a6,6,0,0,1,3,.71,5,5,0,0,1,2.21,2.38S12.69,13.19,12.72,13.27Z"/><path class="cls-3" d="M9.17,15.13a4.68,4.68,0,0,1-1.23-.6,5.33,5.33,0,0,1-2.33-3.74c0-.31-.1-.29.26-.46a5.38,5.38,0,0,1,.65-.2c.28-.08.29-.06.32.23A4.06,4.06,0,0,0,9,13.7a.21.21,0,0,1,.15.24v1A.38.38,0,0,1,9.17,15.13Z"/><path class="cls-3" d="M9.12,8.77l-.25.28-.29-.23c.18-.25.37-.46.52-.71a1.09,1.09,0,0,1,.68-.47c.34-.08.67-.2,1-.29a.45.45,0,0,1,.23,0c.43.12.85.26,1.26.4a.68.68,0,0,1,.26.18l.7.91-.3.25-.29-.33,0,.22V9.7a.16.16,0,0,1-.08.14l-.83.28c0-.09,0-.19,0-.26V9.1c0-.11,0-.17-.16-.17H10.31c-.13,0-.16.05-.16.17v1.08l-.89-.31a.2.2,0,0,1-.06-.15V9a.5.5,0,0,0,0-.17Zm1.35-.63a.45.45,0,0,0,.42.43.42.42,0,0,0,.41-.43.41.41,0,0,0-.41-.41.41.41,0,0,0-.42.41Z"/><path class="cls-3" d="M11.32,10.7a10.75,10.75,0,0,1,1-.4,5.25,5.25,0,0,1,2-.23c.15,0,.21.06.18.21,0,.31-.1.62-.15.93,0,.1-.08.13-.19.12a4.21,4.21,0,0,0-1.75.28.22.22,0,0,1-.18,0C11.92,11.3,11.65,11,11.32,10.7Z"/><path class="cls-3" d="M11.09,13.7a3.69,3.69,0,0,1-3.43-2.06A4,4,0,0,1,11.09,13.7Z"/><path class="cls-3" d="M13.17,12.91l-.6-.93a3.34,3.34,0,0,1,1.6-.34A3.18,3.18,0,0,1,13.17,12.91Z"/></g></g></g></g></svg>