<svg xmlns="http://www.w3.org/2000/svg" viewBox="0 0 21.84 30.24"><defs><style>.cls-1{fill:#898989;}.cls-2{fill:#009400;}.cls-3{fill:#fff;}</style></defs><g id="Layer_2" data-name="Layer 2"><g id="Layer_1-2" data-name="Layer 1"><g id="Layer_2-2" data-name="Layer 2"><g id="Layer_1-2-2" data-name="Layer 1-2"><path class="cls-1" d="M10.92,30.24c-.8-.9-1.65-1.75-2.37-2.69A82.54,82.54,0,0,1,2.46,19,19.33,19.33,0,0,1,.37,14.17,13.74,13.74,0,0,1,0,10.28a10.3,10.3,0,0,1,4.9-8.55A10.16,10.16,0,0,1,9.4.1a10.82,10.82,0,0,1,9.36,3.3A11.11,11.11,0,0,1,20.9,6.31a9.37,9.37,0,0,1,.91,4.83,16.26,16.26,0,0,1-1.62,5.76,39.21,39.21,0,0,1-3.83,6.41A78.47,78.47,0,0,1,11,30.15ZM5.53,11.13A5.53,5.53,0,0,0,6,13.43,5.29,5.29,0,0,0,13,16.2a3.14,3.14,0,0,0,.37-.18A5.49,5.49,0,0,0,15.61,8.8,5.28,5.28,0,0,0,9.38,6,5.41,5.41,0,0,0,5.53,11.13Z"/><circle class="cls-2" cx="10.89" cy="11.18" r="6.17"/><g id="Layer_2-2-2" data-name="Layer 2-2"><g id="Layer_1-2-2-2" data-name="Layer 1-2-2"><path class="cls-3" d="M15,10.07c.4.1.78.21,1.15.32a.22.22,0,0,1,.08.13,5.32,5.32,0,0,1-4.47,4.84,5.72,5.72,0,0,1-2.18-.09.44.44,0,0,1-.16-.06c.24-.26.47-.49.67-.75a.78.78,0,0,1,.72-.31A4.06,4.06,0,0,0,15,10.26Z"/><path class="cls-3" d="M12.74,13.29l-1.1.35a.5.5,0,0,1-.16-.11,4.09,4.09,0,0,0-3.75-2.26c-.2,0-.3-.06-.33-.24s-.09-.57-.14-.85c0-.12.07-.14.16-.14a6,6,0,0,1,3,.71,5,5,0,0,1,2.21,2.38A.55.55,0,0,1,12.74,13.29Z"/><path class="cls-3" d="M9.19,15.15A4.68,4.68,0,0,1,8,14.55a5.31,5.31,0,0,1-2.33-3.74c0-.31-.1-.29.26-.46a4.88,4.88,0,0,1,.65-.2c.28-.08.29-.06.32.23A4.06,4.06,0,0,0,9,13.72a.2.2,0,0,1,.15.24v1A.41.41,0,0,1,9.19,15.15Z"/><path class="cls-3" d="M9.14,8.79l-.25.28L8.6,8.84c.18-.25.37-.46.52-.71a1.09,1.09,0,0,1,.68-.47c.34-.08.67-.2,1-.29a.45.45,0,0,1,.23,0c.43.12.85.26,1.26.4a.68.68,0,0,1,.26.18l.7.91-.3.25-.29-.33v.94a.16.16,0,0,1-.08.14l-.83.28v-1c0-.11,0-.17-.16-.17H10.33c-.13,0-.16.05-.16.17V10.2l-.89-.31a.2.2,0,0,1-.06-.15V9a.48.48,0,0,0,0-.17Zm1.35-.63a.45.45,0,0,0,.42.43.42.42,0,0,0,.41-.43h0a.41.41,0,0,0-.41-.41.43.43,0,0,0-.42.4Z"/><path class="cls-3" d="M11.34,10.72c.33-.15.66-.28,1-.4a5.44,5.44,0,0,1,2-.23c.15,0,.21.06.18.21a6,6,0,0,1-.15.93c0,.1-.08.13-.19.12a4.35,4.35,0,0,0-1.75.28.19.19,0,0,1-.18,0C11.94,11.32,11.67,11,11.34,10.72Z"/><path class="cls-3" d="M11.11,13.72a3.68,3.68,0,0,1-3.43-2.06A4,4,0,0,1,11.11,13.72Z"/><path class="cls-3" d="M13.19,12.93l-.6-.93a3.42,3.42,0,0,1,1.6-.34A3.18,3.18,0,0,1,13.19,12.93Z"/></g></g></g></g></g></g></svg>