<svg height="20" viewBox="0 0 20 20" width="20" xmlns="http://www.w3.org/2000/svg"><path d="m17 7v7.5c0 1.3255127-1.0315078 2.410041-2.3356209 2.4946825l-.1643791.0053175h-9c-1.32549271 0-2.41003942-1.0315163-2.49468237-2.335622l-.00531763-.164378v-7.5zm-10 5c-.55228475 0-1 .4477153-1 1s.44771525 1 1 1 1-.4477153 1-1-.44771525-1-1-1zm3 0c-.55228475 0-1 .4477153-1 1s.44771525 1 1 1c.5522847 0 1-.4477153 1-1s-.4477153-1-1-1zm-3-3c-.55228475 0-1 .44771525-1 1 0 .5522847.44771525 1 1 1s1-.4477153 1-1c0-.55228475-.44771525-1-1-1zm3 0c-.55228475 0-1 .44771525-1 1 0 .5522847.44771525 1 1 1 .5522847 0 1-.4477153 1-1 0-.55228475-.4477153-1-1-1zm3 0c-.5522847 0-1 .44771525-1 1 0 .5522847.4477153 1 1 1s1-.4477153 1-1c0-.55228475-.4477153-1-1-1zm1.5-6c1.3255038 0 2.4100403 1.031527 2.4946824 2.33562324l.0053176.16437676v.5h-14v-.5c0-1.32548388 1.03153548-2.41003871 2.33562426-2.49468232l.16437574-.00531768z" fill="#212121"/></svg>