<svg xmlns="http://www.w3.org/2000/svg" viewBox="0 0 360.38 405.17"><g id="Layer_2" data-name="Layer 2"><g id="Layer_1-2" data-name="Layer 1"><path d="M100.73,180.68c25.66,0,51.31-.13,77,.12,4.81,0,7.26-1.25,9.32-5.81,15.93-35.27,57.1-49.67,91.62-32.22a64.84,64.84,0,0,1,31.29,33.64c1.42,3.37,3.23,4.45,6.7,4.33,6.65-.22,13.32-.08,20-.06,14.44,0,23.45,8.5,23.47,22,0,13.21-9.28,22-23.49,22.22-6.49.07-13,.19-19.48-.06-3.76-.15-5.66.89-7.43,4.64C297.21,256,276,270.23,246.82,269.77c-26.94-.42-47.21-13.59-59.14-38.11-2.46-5.07-5-6.92-10.68-6.89-49.13.26-98.25.16-147.38.12a75.34,75.34,0,0,1-10.94-.64A21.56,21.56,0,0,1,.13,201.85c.72-12,9.89-21.1,21.65-21.13,26.32-.07,52.64,0,79,0ZM225,202.13a23.12,23.12,0,1,0,46.24.58c0-12.51-10.71-23.36-23.15-23.35A23.42,23.42,0,0,0,225,202.13Z"/><path d="M259.93,89.09c-26.15,0-52.3.1-78.45-.1-4,0-5.74,1.35-7.39,4.85C162.2,119.13,142.35,133.4,114.24,134c-28.9.64-50-12.82-62.56-38.88-2.2-4.56-4.45-6.58-9.62-6.17-6.29.5-12.65.09-19,.1-12.86,0-22.6-9-23.06-21.34S9.32,45.39,22.31,45a187.34,187.34,0,0,1,20,.06c5,.38,7.2-1.51,9.3-5.87C63.94,13.47,84.81-.19,113.1,0c27.42.18,47.82,13.59,60,38.37,2.36,4.79,4.68,6.71,10.28,6.68,50.79-.27,101.58-.16,152.37-.16,11.27,0,19.81,5.15,23.21,14a23,23,0,0,1-5.63,24.39,21.76,21.76,0,0,1-15.47,5.82Q298.91,89,259.93,89.09ZM135.83,67.41a23.34,23.34,0,0,0-23-23.34C100,44,89.28,54.3,89.21,66.82s10.58,23.39,23,23.6S135.75,79.71,135.83,67.41Z"/><path d="M259.8,360.19c-26,0-52,.08-78-.08-4,0-6,1.19-7.83,5-11.77,25.09-31.48,39.28-59.39,40-28.89.75-50-12.46-62.77-38.5-2.32-4.76-4.75-7.13-10.42-6.6-6.6.63-13.31.19-20,.09A21.94,21.94,0,0,1,0,338.76a21.63,21.63,0,0,1,20.46-22.23c7.81-.36,15.65-.26,23.48-.11,3.48.07,5.34-1.17,6.77-4.44,9.54-21.9,26.32-35.12,49.57-39.93,29.69-6.16,61.39,10.6,73.55,38.91,1.85,4.32,4.16,5.5,8.56,5.49q76.22-.19,152.42-.06a40.58,40.58,0,0,1,9.44.65c11,2.68,17.17,13,15.61,25.51-1.18,9.55-10.26,17.51-20.62,17.56-26.49.12-53,0-79.46,0Zm-124-22.06c-.05-12.39-11-23.23-23.39-23.17s-23.38,11.1-23.22,23.37c.16,12.51,11.13,23.37,23.43,23.2C125.19,361.36,135.88,350.57,135.83,338.13Z"/></g></g></svg>