<svg xmlns="http://www.w3.org/2000/svg" viewBox="0 0 563.58 475.11"><g id="Layer_2" data-name="Layer 2"><g id="Layer_1-2" data-name="Layer 1"><path d="M245.88,260.34c12.82,12.86,25.34,25.52,38,38.06,8.59,8.51,21.27,9.14,29.8,1.7,9.86-8.59,10.43-22.39,1.09-31.83q-21.08-21.33-42.41-42.41a42.62,42.62,0,0,0-4.65-3.49c12.51-21,24.15-41.38,36.63-61.19a87,87,0,0,1,16.44-18.63c26.22-22.89,60-26.76,91.2-11.07,1.59.8,3.21,1.57,5.31,2.59,1.76-15.66,3.47-30.68,5.14-45.71.78-7,1.45-13.91,2.24-20.85,1.47-12.88,11.67-21.84,23.21-20.44,13,1.58,20.75,12.08,19.11,25.64-1.6,13.22-3.08,26.46-4.56,39.69a10.15,10.15,0,0,0,1.05,5.59c4.07-4.29,8.07-8.65,12.23-12.85q13.53-13.69,27.19-27.24c8.84-8.79,21.91-9,30.4-.57s8.38,21.58-.35,30.44c-12,12.22-24.25,24.29-36.38,36.43-1.15,1.16-2.25,2.38-4.39,4.65,8.88-.95,16.49-1.79,24.1-2.58,8.28-.86,16.55-2,24.85-2.44,12.11-.64,21.38,7.36,22.36,18.72,1.06,12.19-6.49,21.68-19,23.18-20.33,2.45-40.69,4.6-61,6.89-2.12.24-4.21.64-6.65,1,19.45,37.39,14.93,71.15-13.57,102.22-1.74-1.62-3.19-2.88-4.54-4.24Q422.85,255.74,387,219.85c-6.44-6.43-14.08-8.75-22.84-5.73-8.3,2.86-13.17,8.93-14.45,17.53-1.16,7.86,2.05,14.21,7.57,19.71q32.58,32.43,65,65c1.26,1.26,2.47,2.57,4,4.21C412,329,397.94,337.28,383.9,345.51L169,471.47c-13.72,8-29.23,2.22-33-12.41-1.7-6.6.31-12.42,3.65-18.06q16.74-28.38,33.34-56.83,34.83-59.43,69.65-118.87C243.57,263.75,244.62,262.27,245.88,260.34Z"/><path d="M184,60.3c-2.46,3.3-4.35,7.3-7.46,9.77C159.82,83.35,142.81,96.21,126,109.29c-8.92,6.92-10.49,17.57-4,25.93,6.17,8,17.13,9.07,25.82,2.47,9.53-7.24,19-14.6,29-22.34.2,1.85.45,3.06.45,4.28,0,9.16-.13,18.33.07,27.49A17.91,17.91,0,0,0,194,164.54a17.53,17.53,0,0,0,18.58-14.67c.87-6.05.54-12.29.64-18.44.09-5,0-10,0-16.16,5.86,4.44,10.95,8.27,16,12.14,3.57,2.74,7.1,5.52,10.66,8.27,10.86,8.39,16.75,8.6,28.23.7Q190.38,269.06,113,401a182.42,182.42,0,0,1-49.23-32.73c-36.25-33.62-57.68-75-62.54-124.23-3-30.57-.75-61,9.41-90.26,16.59-47.83,50.53-76.63,99-89,23.93-6.1,48.28-7.55,72.84-5.84Z"/><path d="M271.65,131.16c3.11-11.24-2.1-18.35-10.41-24.53-13.73-10.22-27.11-20.93-40.82-31.17-3-2.27-3.41-4.21-2-7.46,5.22-11.92,1.34-9.91,14.72-9.53,29.78.86,58.42,6.45,84.85,20.9,3.88,2.12,7.58,4.57,12.27,7.41C306.22,96.57,287.29,111.48,271.65,131.16Z"/><path d="M184.41,57.81c3.58-9.18,7.25-18.58,10.91-28,2.35-6.05,4.59-12.14,7-18.14C206.29,2.1,216-2.31,225.18,1.2s13.49,13.54,9.91,23.11Q229.42,39.5,223.26,54.5c-.56,1.36-2.32,3.15-3.55,3.17C208.09,57.91,196.47,57.81,184.41,57.81Z"/></g></g></svg>