<svg xmlns="http://www.w3.org/2000/svg" viewBox="0 0 437.74 394.05"><g id="Layer_2" data-name="Layer 2"><g id="Layer_1-2" data-name="Layer 1"><path d="M262.47,394.05c-12.56-2.84-24.44-5.16-36.13-8.23-44-11.55-85.94-28-124.19-53-36.19-23.65-66.1-53.1-84.63-92.88A185.11,185.11,0,0,1,.34,149.67C4.73,75.8,57.5,16.83,128.64,2.82A140.08,140.08,0,0,1,154.9.31c44.49-.17,89-.76,133.46.35,38.65,1,71.94,16.5,100,43,26.71,25.21,43,56.31,47.82,92.62,6.29,47.14-6,89.45-37,125.74-22.91,26.78-51.94,43.73-86.34,51.43-14.72,3.3-29.66,4-44.65,3.41-4.68-.18-5.82,1.33-5.78,5.88C262.59,346,262.47,369.31,262.47,394.05ZM218.59,191.7A28,28,0,0,0,247,163.9c0-14.93-12.63-27.73-27.53-28a28.42,28.42,0,0,0-28.7,27.79A27.84,27.84,0,0,0,218.59,191.7Zm87.61,0c15.75.15,28.09-11.69,28.48-27.31.37-15.12-12.33-28.21-27.58-28.43a28.38,28.38,0,0,0-28.52,27.54A27.9,27.9,0,0,0,306.2,191.69Zm-175.2.1a27.77,27.77,0,0,0,28.14-27.66,27.88,27.88,0,1,0-55.75-.38A27.42,27.42,0,0,0,131,191.79Z"/></g></g></svg>