<svg xmlns="http://www.w3.org/2000/svg" viewBox="0 0 650.24 649.94"><g id="Layer_2" data-name="Layer 2"><g id="Layer_1-2" data-name="Layer 1"><path d="M0,557a93.09,93.09,0,0,1,64.91-87.66c4-1.25,5.39-2.89,5.38-7.18q-.21-137,0-274c0-4.41-1.22-6.21-5.52-7.56-41-12.85-67.18-52.11-64-95.7,3-41.53,35.89-77,77.54-83.69A92.46,92.46,0,0,1,180.75,64c1.5,4.64,3.48,6,8.25,6q136.25-.21,272.49,0c4.62,0,6.76-1.08,8.3-5.85A92.09,92.09,0,0,1,565.23.41C607.37,3.73,641.91,35.63,649,77.8c7.42,44.1-19.13,88.33-61.68,102.17-5.28,1.72-7.08,3.82-7.07,9.57q.35,136,0,272c0,4.61,1.28,6.46,5.74,7.92a92.27,92.27,0,0,1,64.12,91.35c-1.62,44.08-35.24,81.72-78.6,88-45.08,6.51-87.67-19.61-101.59-62.64-1.57-4.87-3.68-6.2-8.67-6.19q-136.24.24-272.49,0c-4.47,0-6.55,1-8,5.64-12.67,40-51.32,66.59-92.76,64.17a92.39,92.39,0,0,1-85.79-75C1.11,568.89.73,562.88,0,557ZM116.42,182.36c-.08,1.3-.22,2.45-.22,3.6q0,138.75-.11,277.49c0,3.75,1.67,4.67,4.63,5.64q40.23,13.16,57.31,52c1.85,4.21,3.26,8.6,4.91,13h3.25q138.75,0,277.49.1c3.66,0,4.74-1.44,5.71-4.53,6.49-20.57,18.45-37.33,36.66-48.95,8.71-5.57,18.46-9.52,28.35-14.5v-2.56q0-138.49.09-277c0-3.56-1.26-4.76-4.4-5.8-30-9.86-50.29-29.81-60.36-59.76-1.46-4.35-3.32-5.38-7.62-5.37q-133.25.18-266.49.06H182.79C172.4,150.07,150.35,172.14,116.42,182.36ZM92.94,139.29a46.15,46.15,0,0,0,46.68-46.45A46.73,46.73,0,0,0,93.05,46C67.85,46,46.6,67.09,46.38,92.45,46.16,118,67.26,139.25,92.94,139.29ZM511,557a46.48,46.48,0,0,0,46.46,46.78c25.57.08,46.71-21.1,46.66-46.75a46.42,46.42,0,0,0-46.36-46.37C531.6,510.58,511,531,511,557Zm46.7-417.7a46.5,46.5,0,0,0,46.42-46.84C603.86,66.76,582.41,45.62,557,46a46.75,46.75,0,0,0-46,47.33A46.16,46.16,0,0,0,557.67,139.28Zm-418,418.16c.08-25.92-20.2-46.64-45.8-46.8a46.7,46.7,0,0,0-47.44,46.41c-.15,25.5,21.12,46.74,46.77,46.71A46.57,46.57,0,0,0,139.62,557.44Z"/></g></g></svg>