<svg xmlns="http://www.w3.org/2000/svg" viewBox="0 0 429.26 495.49"><g id="Layer_2" data-name="Layer 2"><g id="Layer_1-2" data-name="Layer 1"><path d="M214.43,495.48h-166C22.15,495.49.06,473.63,0,447.16Q0,287.46,0,127.74c0-25.83,0-51.66,0-77.49C0,26.65,15.71,6.63,38.69,1.51A55,55,0,0,1,50.54.14Q182.77,0,315,0a12.36,12.36,0,0,1,9.59,4q50.78,51,101.64,101.92a10.76,10.76,0,0,1,2.92,6.84q.21,168,.09,335.93c0,24.19-21.6,46.46-45.85,46.59-56.31.28-112.63.09-168.95.09ZM205,365.79c-6,3.44-11.77,6.09-16.75,9.85-6.58,5-13.66,9.93-18.46,16.41-9.93,13.41-3.64,30.18,12.61,33.88,21.18,4.82,40.45-1.36,58.05-13.14,10-6.68,16.65-16,17.36-28.3.26-4.65,2.08-5.5,6.09-5.48,17,.08,32,6.84,46.7,14.36,11.1,5.66,22.12,11.54,33.48,16.63,6.08,2.73,12.7,4.76,20.32,3.74,0-10.45.11-20.58-.15-30.71,0-1.23-1.81-2.89-3.17-3.51-4-1.87-8.44-3-12.42-5-11.76-5.84-23.23-12.3-35.1-17.9C290.9,346,267.35,341.32,242.4,347.5c-1.59.4-4-.75-5.49-1.92-19.65-15.87-41.62-23.73-66.83-18.09-25,5.58-42.93,20.24-53.12,44-1.33,3.12-.6,4.49,2.49,5.47,7.76,2.46,15.55,4.9,23.16,7.79,4,1.5,5.59.55,7.56-3.18C160.8,361.43,185.91,354.05,205,365.79Zm9.22-100.72c37.15,0,74.3-.06,111.45.07,4,0,5.65-.94,5.43-5.24-.34-6.48,0-13-.11-19.49-.17-10.24,2.07-9.69-9.46-9.69q-58.47,0-117,0c-33.48,0-67,.06-100.45-.08-4.46,0-6.22,1.17-6,5.91a221.79,221.79,0,0,1,0,22.48c-.25,4.82,1.3,6.18,6.12,6.15C140.93,265,177.58,265.07,214.23,265.07ZM148.63,166c14.81,0,29.63-.17,44.44.09,4.67.08,6.1-1.51,5.93-6-.3-8-.18-16-.05-24,.06-3.33-1-4.77-4.57-4.75q-45.94.13-91.88,0c-3.3,0-4.34,1.26-4.28,4.43.14,8.32.24,16.65,0,25-.15,4.27,1.51,5.38,5.51,5.33C118.67,165.86,133.65,166,148.63,166Z"/></g></g></svg>