<svg xmlns="http://www.w3.org/2000/svg" viewBox="0 0 486.64 389.14"><g id="Layer_2" data-name="Layer 2"><g id="Layer_1-2" data-name="Layer 1"><path d="M82.88,268.44c4.16,4.22,8.3,8.47,12.5,12.66,22.38,22.37,44.85,44.65,67.13,67.12,12.85,13,7.87,34-9.41,39.56-7.86,2.55-15.74,1.7-22-4.13-9.62-9-18.9-18.3-28.21-27.59q-44.22-44.12-88.35-88.33c-2.47-2.47-4.88-5-7.34-7.49-7.1-7.19-9.07-16.63-5.36-25.71,3.85-9.41,11.93-15,22.08-15q63-.08,126,0,106.73,0,213.44,0c13.68,0,22.61,6.92,25.27,19.41a23.08,23.08,0,0,1-22.28,27.93c-25.33.21-50.65.08-76,.07l-198.93,0H83.58Z"/><path d="M404.9,119.34c-3-2.31-6.35-4.33-9-7q-36-35.75-71.79-71.7a23.4,23.4,0,0,1-2.93-30.18c6.64-9.53,18.6-13.14,29.16-8.38a29.23,29.23,0,0,1,8.46,6Q419.1,68.29,479.28,128.62c7.6,7.6,9.08,16.49,5.51,26.16-3.47,9.38-12.33,14.87-22.75,14.87H122.58c-11.21,0-20.11-6-23.62-15.88a23.38,23.38,0,0,1,21.87-31.54c43.5-.23,87-.11,130.49-.11q73,0,146,0c1.94,0,3.87-.18,5.8-.28Z"/></g></g></svg>