<svg xmlns="http://www.w3.org/2000/svg" viewBox="0 0 142.54 142.54"><defs><style>.cls-1{fill:#afafaf;}.cls-2{fill:#fff;}</style></defs><g id="Layer_2" data-name="Layer 2"><g id="Layer_1-2" data-name="Layer 1"><path class="cls-1" d="M142.54,71.92c-.63,39.6-32.85,71.16-72.1,70.62C31,142-.65,109.5,0,70.27S33-.54,72.09,0C111.38.56,143.15,33,142.54,71.92Zm-28.67,35c-21.65-29.09-65.06-27.86-85.11,0C48.62,134.49,92,136.13,113.87,106.92ZM71.19,35.7A21.24,21.24,0,0,0,49.92,57.18,21.35,21.35,0,1,0,71.19,35.7Z"/><path class="cls-2" d="M113.87,106.92c-21.9,29.21-65.25,27.57-85.11,0C48.81,79.06,92.22,77.83,113.87,106.92Z"/><path class="cls-2" d="M71.19,35.7A21.38,21.38,0,1,1,49.92,57.18,21.26,21.26,0,0,1,71.19,35.7Z"/></g></g></svg>