<svg id="Layer_1" data-name="Layer 1" xmlns="http://www.w3.org/2000/svg" viewBox="0 0 323 104"><defs><style>.cls-1{fill:#40a047;}</style></defs><path class="cls-1" d="M100.68,74.08c0,.69-.08,1.08-.08,1.47,0,1.84,0,1.89-1.81,2.22a16.79,16.79,0,0,1-7.87-.5c-.3-.09-.5-.58-.68-.92a1.44,1.44,0,0,1,0-.59q0-22.23,0-44.47c0-1.08.31-1.49,1.39-1.73a19.89,19.89,0,0,1,8.62.11c.91.2,1.2.67,1.19,1.59,0,4.83,0,9.66,0,14.5,0,.46.05.92.09,1.54a2.4,2.4,0,0,0,.63-.31c4.33-4.47,13-4,17.73,0A17.35,17.35,0,0,1,126,59a19.5,19.5,0,0,1-3.25,13.55,14.41,14.41,0,0,1-16.17,5.57,11,11,0,0,1-5-3.35C101.34,74.61,101.12,74.46,100.68,74.08Zm14.49-12.76c0-4.28-2.8-7.17-6.94-7.18s-6.92,2.73-6.93,7.1,2.67,7.24,6.82,7.25S115.17,65.66,115.17,61.32Z"/><path class="cls-1" d="M231.82,48.36c.06-.46.12-.69.13-.92.11-2.16.1-2.31,2.2-2.4,2.29-.1,4.61.09,6.91.22.9.05,1.31.5,1.31,1.55q-.08,14.63,0,29.25c0,1-.37,1.43-1.29,1.58a19.58,19.58,0,0,1-7.7-.18c-1.08-.26-1.6-.7-1.43-1.85a7.52,7.52,0,0,0-.06-1.44,4.3,4.3,0,0,0-.72.5c-3.91,5-12.44,5.5-17.74,1.64a16.47,16.47,0,0,1-6.54-10.78A20.22,20.22,0,0,1,209,51.4a14.21,14.21,0,0,1,12.38-7.58c3.77-.15,7.19.91,9.72,4A5.26,5.26,0,0,0,231.82,48.36Zm-.57,12.91c0-4.34-2.64-7.12-6.78-7.13s-7.08,2.85-7.08,7.16,2.77,7.19,7,7.19S231.25,65.67,231.25,61.27Z"/><path class="cls-1" d="M287.3,65.65a5.42,5.42,0,0,0,2.76,3.25,11,11,0,0,0,6.16,1.1,55,55,0,0,0,5.47-1.07,1.51,1.51,0,0,1,1.22.26c1.19,1.34,2.28,2.76,3.4,4.16.51.64.3,1.13-.25,1.64a14.34,14.34,0,0,1-8,3.56,20.62,20.62,0,0,1-11.38-1.32A16.15,16.15,0,0,1,276.54,63c-.61-6.59,1.4-12.17,6.86-16.14,6.49-4.7,17-4.11,22.24,2.2a16.26,16.26,0,0,1,3.57,13.33c-.33,2.18-1.75,3.22-4.2,3.23H287.3Zm12.19-7.81c-.42-3.2-2.92-5.06-6.32-4.85s-5.88,2.28-5.91,4.85Z"/><path class="cls-1" d="M181.49,65.65a5.75,5.75,0,0,0,3.95,3.73A15.13,15.13,0,0,0,195.53,69c.86-.34,1.42-.29,1.94.44,1,1.36,1.92,2.73,2.91,4.07.49.66.31,1.11-.26,1.61a14.77,14.77,0,0,1-7.91,3.41,20.59,20.59,0,0,1-10-.88c-6.82-2.47-10.68-7.33-11.4-14.56-.66-6.58,1.33-12.18,6.78-16.18,6.48-4.77,17.12-4.19,22.34,2.17a16.27,16.27,0,0,1,3.53,13.34c-.34,2.19-1.76,3.18-4.23,3.19H181.49Zm0-7.83h12.22c-.2-2.91-2.56-4.82-5.86-4.84S181.67,55,181.46,57.82Z"/><path class="cls-1" d="M260,43.78c4.6.16,8.2,1.51,11.17,4.43.59.58.76,1.11.25,1.76q-1.81,2.34-3.69,4.64c-.47.58-.94.41-1.56.08a37.46,37.46,0,0,0-4.4-2.06,2.84,2.84,0,0,0-1.74.11,1.61,1.61,0,0,0-.7,2.7,4.7,4.7,0,0,0,1.58,1c2,.84,4,1.59,6,2.43,4.44,1.89,6.75,5.16,6.63,9.57a9.47,9.47,0,0,1-5.16,8.47c-6.09,3.41-15.11,2-19.93-3.07-.52-.53-.75-1-.31-1.66q1.67-2.47,3.37-4.92c.52-.75,1.08-.8,1.9-.27,2,1.33,4.18,2.51,6.76,2.42,1,0,1.92-.13,2.23-1.21S262,66.31,261,65.88c-2.08-.9-4.2-1.71-6.29-2.62-2.81-1.23-5.06-3-6-6.12-1.72-5.73,1.73-11.33,7.95-12.84C257.92,44,259.2,43.9,260,43.78Z"/><path class="cls-1" d="M154.74,53.52c0-7.36,0-14.71,0-22.06a1.32,1.32,0,0,1,1.19-1.55,18.53,18.53,0,0,1,8.85,0,1.3,1.3,0,0,1,1.16,1.48q0,22.37,0,44.71c0,.77-.14,1.2-1.05,1.39a19.23,19.23,0,0,1-9.08-.25,1.2,1.2,0,0,1-1-1.42C154.75,68.38,154.74,61,154.74,53.52Z"/><path class="cls-1" d="M76.87,43c2.63.72,5.09,1.38,7.52,2.1a1.07,1.07,0,0,1,.53.85,34.59,34.59,0,0,1-29,31.49,37.91,37.91,0,0,1-14.24-.62,6.93,6.93,0,0,1-1-.39c1.5-1.69,3-3.19,4.32-4.9s2.64-2,4.72-2A26.24,26.24,0,0,0,76.74,44.23C76.75,44,76.8,43.69,76.87,43Z"/><path class="cls-1" d="M62.23,63.92c-2.41.8-4.77,1.61-7.15,2.32-.24.07-.81-.38-1-.71A26.32,26.32,0,0,0,45,55.24a25.51,25.51,0,0,0-15.29-4.36c-1.34,0-1.9-.41-2.09-1.63q-.45-2.76-.93-5.53c-.15-.85.39-.88,1-.9a38.56,38.56,0,0,1,19.79,4.64A32.23,32.23,0,0,1,61.9,62.93C62,63.14,62.05,63.37,62.23,63.92Z"/><path class="cls-1" d="M39.12,76a29.91,29.91,0,0,1-8-3.94A34.14,34.14,0,0,1,16.06,47.73c-.28-2-.73-1.91,1.72-2.95A29,29,0,0,1,22,43.46c1.84-.47,1.94-.37,2.06,1.54a25.71,25.71,0,0,0,5.31,14.25,25.42,25.42,0,0,0,8.9,7.48,1.49,1.49,0,0,1,1,1.56c0,2.24,0,4.47,0,6.71A9.45,9.45,0,0,1,39.12,76Z"/><path class="cls-1" d="M38.76,34.66l-1.62,1.82-1.92-1.54c1.18-1.58,2.41-3,3.43-4.64a6.65,6.65,0,0,1,4.4-3.12c2.18-.47,4.28-1.27,6.42-1.88a2.86,2.86,0,0,1,1.48,0c2.75.82,5.49,1.67,8.2,2.6a4,4,0,0,1,1.69,1.19C62.36,31,63.78,32.94,65.29,35l-1.92,1.56-1.9-2.12c-.08.66-.16,1-.16,1.37,0,1.55,0,3.11,0,4.67,0,.32-.23.84-.48.93-1.72.62-3.46,1.16-5.36,1.77,0-.63-.09-1.16-.09-1.7,0-1.63,0-3.27,0-4.91,0-.71-.19-1.11-1-1.1-2.63,0-5.27,0-7.9,0-.8,0-1,.32-1,1.07,0,2.27,0,4.54,0,6.95-2-.69-3.94-1.31-5.83-2-.24-.08-.42-.63-.43-1,0-1.52,0-3,0-4.56,0-.38,0-.76-.06-1.14Zm8.85-4.07a2.75,2.75,0,0,0,2.73,2.75A2.72,2.72,0,0,0,53,30.59a2.75,2.75,0,0,0-2.71-2.76A2.78,2.78,0,0,0,47.61,30.59Z"/><path class="cls-1" d="M139.67,62.06c-2.19,0-4.39,0-6.58,0a1,1,0,0,1-1.22-1,18.21,18.21,0,0,1,.26-9.77,1,1,0,0,1,1.19-.86q6.47,0,12.93,0c.69,0,1,.28,1.15.91a17.59,17.59,0,0,1,.24,9.78,1,1,0,0,1-1.14.9C144.22,62,142,62.06,139.67,62.06Z"/><path class="cls-1" d="M53.11,47.18c2.21-.89,4.36-1.92,6.61-2.64A34.47,34.47,0,0,1,72.57,43c1,.07,1.38.37,1.21,1.37-.35,2-.67,4-1,6-.11.69-.47.87-1.16.82a27,27,0,0,0-11.38,1.78A1.5,1.5,0,0,1,59,52.84C57.05,51.06,55.19,49.21,53.11,47.18Z"/><path class="cls-1" d="M51.59,66.71c-7.74,1.36-20.27-6.23-22.32-13.44C37.19,53,47.3,58.32,51.59,66.71Z"/><path class="cls-1" d="M65.08,61.58l-3.9-6.1c3.24-1.7,6.69-2.07,10.43-2.15A21.34,21.34,0,0,1,65.08,61.58Z"/></svg>