<svg id="Layer_1" data-name="Layer 1" xmlns="http://www.w3.org/2000/svg" viewBox="0 0 323 104"><path d="M101.13,74.16c0,.69-.08,1.08-.08,1.47,0,1.83,0,1.89-1.81,2.22a17.06,17.06,0,0,1-7.87-.5c-.3-.09-.5-.58-.68-.92a1.49,1.49,0,0,1,0-.6q0-22.23,0-44.46c0-1.08.31-1.5,1.39-1.73a19.89,19.89,0,0,1,8.62.11c.91.2,1.2.66,1.19,1.58,0,4.84,0,9.67,0,14.5,0,.47,0,.93.09,1.55.32-.16.52-.19.63-.31,4.33-4.47,13-4,17.73,0a17.37,17.37,0,0,1,6.12,12.06,19.51,19.51,0,0,1-3.25,13.56A14.43,14.43,0,0,1,107,78.24a11.15,11.15,0,0,1-5-3.35C101.79,74.69,101.57,74.54,101.13,74.16Zm14.49-12.77c0-4.28-2.8-7.17-6.94-7.18s-6.93,2.74-6.93,7.11,2.67,7.24,6.82,7.25S115.62,65.74,115.62,61.39Z"/><path d="M232.27,48.44c.06-.47.11-.7.13-.93.11-2.15.1-2.31,2.2-2.4,2.29-.1,4.61.1,6.91.23.9,0,1.31.5,1.31,1.55q-.07,14.63,0,29.24c0,1-.37,1.44-1.29,1.58a19.39,19.39,0,0,1-7.7-.17c-1.08-.26-1.6-.7-1.43-1.85a7.52,7.52,0,0,0-.06-1.44,4.3,4.3,0,0,0-.72.5c-3.91,5-12.44,5.5-17.74,1.63a16.41,16.41,0,0,1-6.54-10.78,20.21,20.21,0,0,1,2.15-14.12,14.2,14.2,0,0,1,12.38-7.59c3.77-.14,7.19.91,9.72,4A5.26,5.26,0,0,0,232.27,48.44Zm-.57,12.9c0-4.34-2.64-7.12-6.78-7.13s-7.08,2.86-7.08,7.16,2.77,7.2,7,7.2S231.7,65.74,231.7,61.34Z"/><path d="M287.75,65.73A5.42,5.42,0,0,0,290.51,69a11,11,0,0,0,6.16,1.09A52.23,52.23,0,0,0,302.14,69a1.51,1.51,0,0,1,1.22.26c1.19,1.34,2.28,2.76,3.4,4.16.51.64.3,1.13-.25,1.64a14.48,14.48,0,0,1-8,3.56,20.53,20.53,0,0,1-11.38-1.33A16.14,16.14,0,0,1,277,63.11c-.61-6.59,1.4-12.18,6.86-16.14,6.49-4.7,17-4.11,22.24,2.2a16.24,16.24,0,0,1,3.57,13.32c-.33,2.19-1.75,3.23-4.2,3.24H287.75Zm12.19-7.81c-.42-3.2-2.92-5.07-6.32-4.86s-5.88,2.28-5.91,4.86Z"/><path d="M181.94,65.73a5.75,5.75,0,0,0,3.95,3.73A15.26,15.26,0,0,0,196,69.12c.86-.35,1.42-.3,1.94.43,1,1.36,1.92,2.73,2.91,4.08.49.66.31,1.1-.26,1.61a14.77,14.77,0,0,1-7.91,3.41,20.59,20.59,0,0,1-10-.88c-6.82-2.47-10.68-7.33-11.4-14.56C170.57,56.63,172.56,51,178,47c6.48-4.77,17.12-4.19,22.34,2.17a16.27,16.27,0,0,1,3.53,13.34c-.34,2.18-1.76,3.18-4.23,3.19H181.94Zm0-7.83h12.22c-.2-2.91-2.56-4.82-5.86-4.84S182.12,55.1,181.91,57.9Z"/><path d="M260.43,43.86c4.6.15,8.2,1.51,11.17,4.43.59.58.76,1.11.25,1.75q-1.82,2.34-3.69,4.65c-.47.58-.94.41-1.56.07a37.4,37.4,0,0,0-4.4-2,2.77,2.77,0,0,0-1.74.11,1.6,1.6,0,0,0-.7,2.69,4.72,4.72,0,0,0,1.58,1c2,.84,4,1.59,6,2.43,4.44,1.88,6.75,5.16,6.63,9.56A9.52,9.52,0,0,1,268.79,77c-6.09,3.4-15.11,2-19.93-3.07-.52-.54-.75-1-.31-1.67q1.66-2.46,3.37-4.91c.52-.75,1.08-.8,1.9-.27,2.05,1.33,4.18,2.51,6.76,2.42,1,0,1.92-.13,2.23-1.21s-.35-1.92-1.35-2.35c-2.08-.9-4.21-1.71-6.29-2.62-2.81-1.23-5.06-3.05-6-6.13-1.72-5.73,1.73-11.32,7.95-12.83C258.37,44.08,259.65,44,260.43,43.86Z"/><path d="M155.19,53.59c0-7.35,0-14.7,0-22.05A1.33,1.33,0,0,1,156.36,30a18.65,18.65,0,0,1,8.85,0,1.3,1.3,0,0,1,1.16,1.48q0,22.35,0,44.71c0,.77-.14,1.2-1,1.39a19.11,19.11,0,0,1-9.08-.26,1.19,1.19,0,0,1-1-1.41C155.2,68.45,155.19,61,155.19,53.59Z"/><path d="M77.32,43.12c2.63.72,5.09,1.37,7.52,2.09a1.1,1.1,0,0,1,.53.86,34.57,34.57,0,0,1-29,31.48,37.7,37.7,0,0,1-14.24-.61,8.63,8.63,0,0,1-1-.4c1.5-1.68,3.05-3.18,4.32-4.89s2.64-2,4.72-2A26.24,26.24,0,0,0,77.19,44.31C77.2,44,77.25,43.77,77.32,43.12Z"/><path d="M62.68,64c-2.41.8-4.77,1.61-7.15,2.32-.24.07-.81-.38-1-.71a26.32,26.32,0,0,0-9.09-10.29A25.37,25.37,0,0,0,30.17,51c-1.34,0-1.9-.42-2.09-1.63-.3-1.84-.61-3.69-.93-5.53-.15-.85.38-.88,1-.9a38.45,38.45,0,0,1,19.79,4.63A32.29,32.29,0,0,1,62.35,63C62.45,63.22,62.5,63.45,62.68,64Z"/><path d="M39.57,76.1a29.91,29.91,0,0,1-8-3.94A34.16,34.16,0,0,1,16.51,47.8c-.28-2-.73-1.9,1.72-2.94a29,29,0,0,1,4.21-1.33c1.84-.46,1.94-.37,2.06,1.55a25.74,25.74,0,0,0,5.31,14.25,25.42,25.42,0,0,0,8.9,7.48,1.47,1.47,0,0,1,.95,1.56c0,2.23,0,4.47,0,6.7A9.87,9.87,0,0,1,39.57,76.1Z"/><path d="M39.21,34.73l-1.62,1.83L35.67,35c1.18-1.58,2.41-3.05,3.43-4.64a6.59,6.59,0,0,1,4.4-3.12c2.18-.48,4.28-1.28,6.42-1.88a2.76,2.76,0,0,1,1.48,0c2.75.82,5.49,1.67,8.2,2.6a4,4,0,0,1,1.69,1.19C62.81,31.05,64.23,33,65.74,35l-1.92,1.57-1.9-2.12c-.08.66-.16,1-.16,1.36,0,1.56,0,3.12,0,4.67,0,.33-.23.84-.48.93-1.72.63-3.46,1.16-5.36,1.78,0-.63-.09-1.16-.09-1.7,0-1.64,0-3.27,0-4.91,0-.72-.19-1.11-1-1.1-2.63,0-5.27,0-7.9,0-.8,0-1,.31-1,1.07,0,2.27,0,4.54,0,6.94-2-.68-3.94-1.3-5.83-2-.24-.09-.42-.63-.43-1,0-1.51,0-3,0-4.55,0-.38,0-.76-.06-1.14Zm8.85-4.06a2.76,2.76,0,0,0,2.73,2.75,2.73,2.73,0,0,0,2.7-2.76,2.72,2.72,0,1,0-5.43,0Z"/><path d="M140.12,62.13c-2.19,0-4.39,0-6.58,0a1,1,0,0,1-1.22-.95,18.21,18.21,0,0,1,.26-9.77,1,1,0,0,1,1.19-.87c4.31,0,8.62,0,12.93,0,.69,0,1,.27,1.15.91a17.55,17.55,0,0,1,.24,9.77,1,1,0,0,1-1.14.9C144.67,62.11,142.4,62.13,140.12,62.13Z"/><path d="M53.56,47.26c2.21-.89,4.36-1.92,6.61-2.64A34.47,34.47,0,0,1,73,43.07c1,.07,1.38.37,1.21,1.36-.35,2-.67,4-1,6-.11.68-.47.87-1.16.82A26.84,26.84,0,0,0,60.69,53a1.54,1.54,0,0,1-1.27-.08C57.5,51.14,55.64,49.29,53.56,47.26Z"/><path d="M52,66.79c-7.74,1.36-20.27-6.23-22.32-13.45C37.64,53.08,47.75,58.4,52,66.79Z"/><path d="M65.53,61.66l-3.9-6.1c3.24-1.71,6.69-2.07,10.43-2.16A21.37,21.37,0,0,1,65.53,61.66Z"/></svg>