<svg xmlns="http://www.w3.org/2000/svg" viewBox="0 0 495.41 495.23"><g id="Layer_2" data-name="Layer 2"><g id="Layer_1-2" data-name="Layer 1"><path d="M247.62,495.23C112.56,496-1.67,385,0,244.52,1.61,112.16,108-.13,247.94,0c141.78.13,249,115.9,247.45,250.61S383.33,495.91,247.62,495.23Zm.48-209.38A170.09,170.09,0,0,0,187.41,296c-19.62,7.19-37.37,17.5-51.73,33-6.91,7.45-6.67,17.26.18,23.61,6.66,6.17,16.35,5.74,23.19-1.37,10.48-10.92,23.06-18.48,37-23.94,23.52-9.18,47.92-10.75,72.66-7.61,25.92,3.29,49.2,12.6,67.77,31.77,6.62,6.82,16.73,7.2,23.25,1s6.88-15.88.41-22.86A107.75,107.75,0,0,0,347.76,318C318.5,295.1,284.66,286.21,248.1,285.85ZM169.71,232.7a31.83,31.83,0,0,0,32.2-31.33c.15-17.24-14.25-31.82-31.68-32.06-17.11-.24-31.92,14.51-31.91,31.8A31.74,31.74,0,0,0,169.71,232.7Zm155.53,0A31.58,31.58,0,0,0,357,201a32,32,0,0,0-31.4-31.72c-17.24-.18-31.92,14.28-32.15,31.63S307.69,232.68,325.24,232.7Z"/></g></g></svg>